<svg xmlns="http://www.w3.org/2000/svg" viewBox="0 0 500 500"><g id="freepik--Shadows--inject-3"><path id="freepik--Shadow--inject-3" d="M309.19,461.56l27.9,16.11a9.57,9.57,0,0,0,8.66,0l40.35-23.3L418.33,473a9.57,9.57,0,0,0,8.66,0l48.21-27.84c2.39-1.38,2.39-3.62,0-5L447.3,424a9.57,9.57,0,0,0-8.66,0l-16,9.22-32.23-18.6a9.51,9.51,0,0,0-8.66,0l-72.58,41.9C306.8,457.94,306.8,460.18,309.19,461.56Z" style="fill:#e0e0e0"></path><path id="freepik--shadow--inject-3" d="M382.23,173.9S379,169.36,372,170s-13.6,3.42-25.09,10.06l-55.07,31.8a12.73,12.73,0,0,0-3.1-2.6,6.44,6.44,0,0,0-3.37-1h-.06l-.16,0c-4.6.16-11.27,5.34-15.25,8.88L162.39,210a9.86,9.86,0,0,0-7.58,3.42l-3.26,4.23,33.14,6.29h0a.73.73,0,0,0,.4.74l.11.08h0a1.89,1.89,0,0,0,.36.16l.18.05a3,3,0,0,0,.37.07,2.7,2.7,0,0,0,.37,0h.14l.76-.42.22-.14,7.45,1.42.12.51h0l4,17.54,4.52,20-38-.86a17.82,17.82,0,0,0-8,1.77l-3.24,1.87,40.46,9.53-.36.3-.1.08L194,277l-.15.14-.16.13,0,0h0a4.54,4.54,0,0,0-.8.62h0a6.33,6.33,0,0,0-1.33,1.8,1.3,1.3,0,0,0-.08.17c-.06.12-.1.23-.15.35a2.83,2.83,0,0,0-.11.31,1.4,1.4,0,0,0-.09.29c0,.13-.07.26-.1.39s0,.15,0,.23a4.18,4.18,0,0,0,0,.61c0,1.25.63,2,1.54,1.95v0h.14c1.19-.06,9.84-.58,24-2.79l25.31,8,2-1.13.72-.42a1.68,1.68,0,0,0,.89-1.39,2.07,2.07,0,0,0,0-.6,4.9,4.9,0,0,0-1.74-2.63l-6.57-5.66c16.73-3.92,25-8.71,37-15.59l28.93-16.7,12.4,4.82a1.57,1.57,0,0,0,.45.58,2.65,2.65,0,0,0,.35.24,3.63,3.63,0,0,0,.85.35,5.14,5.14,0,0,0,1.62.16h0l.06,0,15.28,6a1.39,1.39,0,0,0,.34.43l.28.19a3.36,3.36,0,0,0,1.3.39,4.21,4.21,0,0,0,.46,0h.21l16,6.24h0a.55.55,0,0,0,.09.14,1.33,1.33,0,0,0,.35.28,2.28,2.28,0,0,0,.94.28,2.31,2.31,0,0,0,.34,0h.11l17.16,6.69,5.61-3.24c2.26-1.3,2.44-3.69.42-5.33l-32.16-26.06a6.38,6.38,0,0,0,.47-2.53,14.75,14.75,0,0,0-5.88-11l33.57-19.39c.61-.35,1.21-.71,1.81-1.1l.52-.34,1.27-.86.55-.4c.41-.3.82-.6,1.22-.91l.5-.4,1.24-1,.43-.36c.43-.37.85-.75,1.27-1.13l.33-.3c.44-.42.88-.83,1.3-1.26l.23-.23c.46-.46.91-.93,1.34-1.41l.12-.13c.47-.52.93-1,1.36-1.57h0c3-3.62,5.09-7.38,5.65-10.71C394.11,174.88,388.26,173.84,382.23,173.9ZM227.74,250.08,210.8,229.87a3.27,3.27,0,0,0,1,.34l.3,0a4.29,4.29,0,0,0,.47,0h.18c.44-.23.9-.49,1.36-.77l21.41,4.07h0a1,1,0,0,0,.08.6,2.08,2.08,0,0,0,.2.33,2.94,2.94,0,0,0,.25.25,3.53,3.53,0,0,0,.35.24,4.67,4.67,0,0,0,2.47.51c.56-.29,1.14-.63,1.73-1l9.26,1.76C242,241,233.94,245.94,227.74,250.08Zm-17.94-21.4.3,0h0a.67.67,0,0,0,0,.29Z" style="opacity:0.2"></path></g><g id="freepik--Clouds--inject-3"><path id="freepik--Cloud--inject-3" d="M442.43,110.42l-.59.17c0-6.8-9.3-15.92-15.81-10.47-5.24-11.58-20.79-13.38-24.91,1.36-13.08-4.6-18.65,2.09-19.64,15-4.94-3.24-17.93-2.31-18.31,9.15-3.95-4-17.25-6.16-20.9,3.24a4.91,4.91,0,0,0-5-.91,51.32,51.32,0,0,0-5.54,2.11,20.42,20.42,0,0,1-6.28,1.49c-1,.09-3.26,0-3.94,1-1.72,2.39,5.33,2.84,6.61,2.79,3-.14,5.75-1.16,8.7-1.26a23.94,23.94,0,0,1,7.56,1.22c2.38.67,4.69,2.37,7,3.31,4.94,2,9.88,2.94,15.23,1.57,3.94-1,8-4.58,8-4.58s8.25,4.95,11.48,5.72c12.43,3,20.83-3,23.39-9,7.43,8.83,25.17,9.87,28.54-3,4.4,4.49,14.91,7.56,20,.18,2.54-3.68,1.17-10.27-4.42-10.38C454.59,111.78,448.59,108.85,442.43,110.42Z" style="fill:#f0f0f0"></path><path id="freepik--cloud--inject-3" d="M83.54,375.7a19.69,19.69,0,0,1,4.83-10.47,13.3,13.3,0,0,1,10.31-4.37c6.63.09,15.29,4.95,17.06,11.68,1.62-3.36,10.59-1,13.23.89,3.78,2.64,6,7.79,8.64,11.52a13.65,13.65,0,0,1,5.56-3.27,10.6,10.6,0,0,1,8.93.63,15.2,15.2,0,0,1,5.82,6.23,9.79,9.79,0,0,1,5-1.1,10.78,10.78,0,0,1,6.89,3.27c.43.41,1.82,2.16,1.82,2.16s2.18-.59,2.89-.74a11.39,11.39,0,0,1,7.3,1,29.75,29.75,0,0,0,8.49,2c1.29.15,4.89-.17,5.58,1.28,1.36,2.87-4.12,3.1-5.53,3.17-2.94.14-5.15-.9-7.91-1.41-1.11,3.51-5.55,3.35-8.44,2.52l-4.91-1.44s-1.74,1.1-2.88,1.9a19.48,19.48,0,0,1-9.69,3,17.84,17.84,0,0,1-4.94-.34,28.27,28.27,0,0,1-6.55-2.22c-.76-.39-2-.88-2-.88s-2.44,2.33-3.43,3a35.3,35.3,0,0,1-4.62,2.77c-8.23,4.17-22.07,3.05-25.72-7a14.78,14.78,0,0,1-14.72,7.15c-3.9-.49-7.55-3.78-7.41-7.88-2.65,3.64-11.61,5.22-15.48,3.06-2.51-1.4-4.83-6.9-1.57-8.62-4.72,1.3-14.76.11-13.77-6.39.8-5.23,6.3-6,9.9-5C65.92,372.27,77.5,369.16,83.54,375.7Z" style="fill:#f0f0f0"></path></g><g id="freepik--Airplane--inject-3"><g id="freepik--Trail--inject-3"><path d="M48.7,273.3c-27.08-16.1-32.58-41.72-32.58-41.72C15.34,187.28,47.56,140,84,116.25a201.5,201.5,0,0,0-37.33,94.2A204.16,204.16,0,0,0,48.7,273.3Z" style="fill:#e6e6e6"></path><path d="M215.58,272.59c-39.67,43.59-95,73.9-146.32,64.52C31.47,323,17.38,276.41,16.12,231.58c0,0,8.34,38.86,55.05,50.93,57.26,14.8,117.57-16,117.57-16l23.16,4.7Z" style="fill:#fff;opacity:0.5"></path><path d="M48.7,273.3a201.69,201.69,0,0,0,24.1,64.39c-1.18-.17-2.36-.36-3.54-.58C31.48,323,17.38,276.41,16.12,231.58,16.12,231.58,21.62,257.2,48.7,273.3Z" style="fill:#f0f0f0"></path><path d="M24.58,259.79s17.25,33.78,70.15,38.08,91.89-23.33,91.89-23.33-37.53,25.22-91.08,20.76C41.44,290.79,24.58,259.79,24.58,259.79Z" style="fill:#fafafa"></path><path d="M165.14,292c-31.58,18.23-92.85,28-128.38,6.93,0,0,19.76,17,58.37,15C140.8,311.52,165.14,292,165.14,292Z" style="fill:#fafafa"></path><path d="M197.75,281.66c-14.05,14.71-41.52,32.68-68.29,40.4s-56.64,8.63-72.14,0c0,0,26,10.3,72.14-2.57C172,307.62,197.75,281.66,197.75,281.66Z" style="fill:#f5f5f5"></path></g><g id="freepik--Plane--inject-3"><g id="freepik--little-wing--inject-3"><path id="freepik--lttle-wing--inject-3" d="M243.73,274.75c2,1.7,2.37,3.77.89,4.62l-2.68,1.55-35.47-11.21,16.25-13.07Z" style="fill:#ebebeb"></path><path d="M231,272.92c2.76-.41,6.46-.92,9.11-1.28l-17.41-15-16.25,13.07,35.47,11.21S226.22,273.63,231,272.92Z" style="fill:#e0e0e0"></path><path d="M241.94,280.92h0l2.68-1.55c1.48-.85,1.09-2.92-.89-4.62l-21-18.11s17.57,16.27,19.22,17.78S246.77,278.31,241.94,280.92Z" style="fill:#fafafa"></path></g><g id="freepik--Wing--inject-3"><g id="freepik--wing--inject-3"><path id="freepik--wing--inject-3" d="M377.7,255l-53.15-43.08-.11-.08c-1.59-.92-8.36,1.51-15.12,5.41l-10,5.76c-6.76,3.9-11,7.81-9.37,8.73l.13.06,81.57,31.77,5.61-3.24C379.54,259,379.72,256.59,377.7,255Z" style="fill:#ebebeb"></path><path d="M318.65,232.21l18.1-10.45-12.2-9.89-.11-.08c-1.59-.92-8.36,1.51-15.12,5.41l-10,5.76c-6.76,3.9-11,7.81-9.37,8.73l.13.06,81.57,31.77L318.78,236.7C316.45,235.52,316.4,233.51,318.65,232.21Z" style="fill:#e0e0e0"></path><path d="M376.06,261h0l1.22-.7c2.26-1.3,2.44-3.69.42-5.33l-53.15-43.08s47.12,39.37,49.56,41.89S380.45,258.45,376.06,261Z" style="fill:#fafafa"></path></g><path d="M328.69,234.62a101.74,101.74,0,0,0-13.33,6.4s-.21.79.89,1.42a4.67,4.67,0,0,0,2.47.51,75,75,0,0,0,10.59-7.29A.61.61,0,0,0,328.69,234.62Z" style="fill:#3A75B4"></path><path d="M328.69,234.62a101.74,101.74,0,0,0-13.33,6.4s-.21.79.89,1.42a4.67,4.67,0,0,0,2.47.51,75,75,0,0,0,10.59-7.29A.61.61,0,0,0,328.69,234.62Z" style="fill:#3A75B4"></path><path d="M328.69,234.62a101.74,101.74,0,0,0-13.33,6.4s-.21.79.89,1.42a4.67,4.67,0,0,0,2.47.51,75,75,0,0,0,10.59-7.29A.61.61,0,0,0,328.69,234.62Z" style="fill:#3A75B4"></path><path d="M328.69,234.62a101.74,101.74,0,0,0-13.33,6.4s-.21.79.89,1.42a4.67,4.67,0,0,0,2.47.51,75,75,0,0,0,10.59-7.29A.61.61,0,0,0,328.69,234.62Z" style="fill:#3A75B4"></path><path d="M328.69,234.62a101.74,101.74,0,0,0-13.33,6.4s-.21.79.89,1.42a4.67,4.67,0,0,0,2.47.51,75,75,0,0,0,10.59-7.29A.61.61,0,0,0,328.69,234.62Z" style="fill:#3A75B4"></path><path d="M328.69,234.62a101.74,101.74,0,0,0-13.33,6.4s-.21.79.89,1.42a4.67,4.67,0,0,0,2.47.51,75,75,0,0,0,10.59-7.29A.61.61,0,0,0,328.69,234.62Z" style="opacity:0.15"></path><path d="M317.72,240.91c.79-.95,10.93-6.27,11.7-6.08a.59.59,0,0,0-.73-.21,101.74,101.74,0,0,0-13.33,6.4s-.21.79.89,1.42a4.67,4.67,0,0,0,2.47.51C317.81,242.66,316.92,241.86,317.72,240.91Z" style="opacity:0.15"></path><path d="M344.41,243.36a78.29,78.29,0,0,0-10.42,5s-.17.62.69,1.12a3.7,3.7,0,0,0,1.94.4,59,59,0,0,0,8.29-5.7A.49.49,0,0,0,344.41,243.36Z" style="fill:#3A75B4"></path><path d="M344.41,243.36a78.29,78.29,0,0,0-10.42,5s-.17.62.69,1.12a3.7,3.7,0,0,0,1.94.4,59,59,0,0,0,8.29-5.7A.49.49,0,0,0,344.41,243.36Z" style="opacity:0.15"></path><path d="M335.83,248.28a31.57,31.57,0,0,1,5.34-3.05c2.8-1.44,3.72-1.82,3.92-1.38a.49.49,0,0,0-.68-.49,78.29,78.29,0,0,0-10.42,5s-.17.62.69,1.12a3.7,3.7,0,0,0,1.94.4S335.17,248.94,335.83,248.28Z" style="opacity:0.15"></path><path d="M360.51,252.73a.37.37,0,0,0-.37-.63,57.56,57.56,0,0,0-7.53,3.62s-.12.45.51.82a2.72,2.72,0,0,0,1.41.29A42.51,42.51,0,0,0,360.51,252.73Z" style="fill:#3A75B4"></path><path d="M360.51,252.73a.37.37,0,0,0-.37-.63,57.56,57.56,0,0,0-7.53,3.62s-.12.45.51.82a2.72,2.72,0,0,0,1.41.29A42.51,42.51,0,0,0,360.51,252.73Z" style="opacity:0.15"></path><path d="M353.84,255.71a27.6,27.6,0,0,1,4.77-2.6c1.83-.81,2-.88,2-.67a.36.36,0,0,0-.5-.34,57.56,57.56,0,0,0-7.53,3.62s-.12.45.51.82a2.72,2.72,0,0,0,1.41.29C354,256.62,353.41,256.14,353.84,255.71Z" style="opacity:0.15"></path></g><g id="freepik--Tail--inject-3"><path id="freepik--tail--inject-3" d="M232,246.86l-29.41-35.15c-1.67-2-4.34-2.86-6-1.92l-2.94,1.69,11.49,50.86Z" style="fill:#f5f5f5"></path><path d="M232,246.86l-5.88-7c-2.57,1.62-12.25,7.33-17.84,5.26-6.49-2.41-13.1-27.06-13.1-27.06h0l10,44.3Z" style="fill:#e0e0e0"></path><path d="M207.75,260.79l24.24-14c-9.05,2-15.41.15-20.75-5-6.74-6.47-17.56-30.41-17.56-30.41l11.3,50Z" style="fill:#3A75B4"></path><path d="M232,246.82h0c-6.88,1.48-12.2.77-16.7-1.91-2.5.68-5,.93-7,.2-6.05-2.24-12.21-23.83-13-26.73L205,261.43l2.77-.64Z" style="opacity:0.1"></path><path d="M202.06,213.58c-1.74-1.94-4.32-3.21-5.77-2.84l-2.61.67,2.94-1.66c1.62-.91,4.29,0,6,2L232,246.8Z" style="fill:#fff"></path></g><g id="freepik--Turbine--inject-3"><path d="M328.14,232.82a6.31,6.31,0,1,1-6.3-6.3A6.3,6.3,0,0,1,328.14,232.82Z" style="fill:#e0e0e0"></path><path d="M328.14,232.82a6.31,6.31,0,1,1-6.3-6.3A6.3,6.3,0,0,1,328.14,232.82Z" style="opacity:0.1"></path><path d="M328.14,232.82a6.31,6.31,0,0,0-9.81-5.24,10.67,10.67,0,0,0,2.6,9.59c.45.44-2.58.42-5-2.18a6.3,6.3,0,0,0,12.22-2.17Z" style="opacity:0.1"></path><path d="M336.33,214c-6.1,0-16.5,10.26-17.07,11h0a4.74,4.74,0,0,0-.93,3.07,12.72,12.72,0,0,0,5.75,10,4.57,4.57,0,0,0,3.27.71h0c.91-.13,14.93-4.11,18-9.39Z" style="fill:#e0e0e0"></path><path d="M345.33,229.34l-8.58-14.61c-1.63.17-3,.52-3.37,1.19-1.28,2.1-1.42,6.14,0,9.19s1.34,4.1-4.86,6.09-7.8,1.72-9.93-1a12.81,12.81,0,0,0,5.49,7.87,4.57,4.57,0,0,0,3.27.71h0C328.26,238.6,342.28,234.62,345.33,229.34Z" style="opacity:0.1"></path><path d="M336.33,214c-6.1,0-16.5,10.26-17.07,11h0a4.38,4.38,0,0,0-.88,2.46c.39-1.49,2.05-2.9,4.23-4.76A92.66,92.66,0,0,1,332,216c1.18-.57-.08,2.42,1.27,5.69l3.53-7Z" style="fill:#fafafa"></path><path d="M346,226.36c0,4.21-3,5.92-6.61,3.81a14.59,14.59,0,0,1-6.61-11.44c0-4.22,3-5.92,6.61-3.82A14.61,14.61,0,0,1,346,226.36Z" style="fill:#455a64"></path><path d="M339.09,222.54l3.15-3.45-3.73,3.73Zm-.41-.43,2.15-4.15-2.63,4.57Zm-.5-.31,1-4.58-1.39,5.11Zm-.57-.17-.18-4.69,0,5.29Zm5.7-1.08-4.57,2.63.63-.11ZM338.05,226l2.54,4-2.65-4.63Zm5.91-3.77-5.09,1.36.64,0Zm-5.38,3.49,3.47,3.18-3.75-3.76ZM337,221.61l-1.37-4.48,1.32,5.12Zm2.47,2.63,4.67-.21h-5.27Zm-.48,1.07,4.15,2.15-4.57-2.63Zm.31-.51,4.57,1-5.1-1.37Zm-3.92-.28-.17.26.8-.47Zm.9,1.32,0,.67.49-1.55Zm-.65-.87-.13.32.58-.58Zm.3.42-.07.44.54-1Zm1.53.74.88,2.61-.83-3.24Zm-.63-.08.21,1.39,0-2.37Zm-1.36-3.61-1.64-.78,2,1.26Zm-.53,1.81L336,224h-.7Zm1.48-2.62-2.52-3.94,2.64,4.69Zm-.52.4-2.41-2.2,2.68,2.78Zm-.47,1-.17-.1-1-.07,1.41.46Zm.12.57-.24-.07-.69.13,1,.08Z" style="fill:#fff;opacity:0.5"></path><path d="M338.26,225.11l5.13,5.13a.29.29,0,0,0,.29.07l.16-.08,0,0s0-.07-.12-.15l-5.22-5.22c-.07-.07-.06-.09,0,0l6.44,3.71a.16.16,0,0,0,.23-.08h0a.22.22,0,0,0-.1-.27l-6.38-3.68c-.09,0-.08-.07,0,0l6.58,1.77c.11,0,.18,0,.17-.14v0a.28.28,0,0,0-.2-.24l-6.45-1.73c-.1,0-.1,0,0,0H345a.14.14,0,0,0,.14-.18h0a.26.26,0,0,0-.23-.19h-6.08c-.11,0-.11,0,0,0l5.56-1.49a.16.16,0,0,0,.12-.22h0a.21.21,0,0,0-.25-.12l-5.53,1.48c-.1,0-.11,0,0,0l4.86-2.8c.09,0,.14-.14.12-.2l-.06-.1,0-.06s-.11,0-.2,0l-4.86,2.81c-.09,0-.11,0,0,0l4.05-4.06a.23.23,0,0,0,0-.28h0a.16.16,0,0,0-.25,0l-4.08,4.08c-.08.08-.09.06,0,0l3-5.29a.24.24,0,0,0,0-.29h0a.14.14,0,0,0-.23,0l-3.1,5.36c-.05.09-.07.09,0,0l1.73-6.48a.29.29,0,0,0-.1-.29l0,0a.13.13,0,0,0-.21.08l-1.77,6.62c0,.1-.05.09-.05,0v-7.42a.23.23,0,0,0-.18-.22h0a.15.15,0,0,0-.18.16v7.48c0,.1,0,.11-.05,0L335.08,215a.41.41,0,0,0-.08-.17l0,0-.13.09a.28.28,0,0,0-.09.28l1.9,7.08c0,.1,0,.11,0,0l-3-5.22c-.05-.09-.11-.08-.14,0s0,.12,0,.18a.61.61,0,0,0,.06.35l2.81,4.86c.05.09,0,.1,0,0l-2.76-2.76c-.07-.07-.12,0-.12.06s0,.13,0,.2a.53.53,0,0,0,.15.32l2.45,2.45c.07.07.06.09,0,0l-2.09-1.2c-.09-.06-.14,0-.11.08l.05.17a.53.53,0,0,0,.22.27l1.74,1c.09.06.08.08,0,0l-1.44-.39c-.1,0-.15,0-.12.13l0,.08a.41.41,0,0,0,.25.23l1.18.31c.1,0,.1,0,0,0h-1c-.11,0-.16.08-.11.17l0,0a.35.35,0,0,0,.28.17h.79c.11,0,.11,0,0,0l-.67.18a.15.15,0,0,0-.1.22h0a.23.23,0,0,0,.27.12l.59-.16c.1,0,.11,0,0,0l-.52.3c-.09.05-.15.12-.13.16l0,.06.06.1c0,.05.13.05.22,0l.51-.29c.09-.06.11,0,0,0l-.43.42a.27.27,0,0,0,0,.3h0a.15.15,0,0,0,.24,0l.48-.49c.08-.07.09-.06,0,0l-.39.69a.33.33,0,0,0,0,.32l0,0c0,.08.14.08.2,0l.49-.85c0-.09.07-.08,0,0l-.31,1.16a.38.38,0,0,0,.07.33l.06.07c.06.08.14.06.17,0l.38-1.42c0-.1.05-.1.05,0v2a.53.53,0,0,0,.12.32l.12.12c.07.07.13.05.13,0v-2.38c0-.1,0-.1.05,0l.88,3.29a.66.66,0,0,0,.2.29l.18.11c.08.06.13,0,.1-.07l-1-3.72c0-.1,0-.11,0,0l2.77,4.8a.6.6,0,0,0,.28.22l.17.06c.1,0,.14,0,.08-.12l-3-5.15C338.17,225.05,338.18,225,338.26,225.11Z" style="fill:#37474f"></path><path d="M341.28,221.5a.67.67,0,0,0-.42-.3h0s-3.36-.72-4.94.19a1.41,1.41,0,0,0-.57,1.28,4.34,4.34,0,0,0,2,3.41,1.4,1.4,0,0,0,1.39.14h0c1.58-.92,2.63-4.19,2.63-4.19h0A.68.68,0,0,0,341.28,221.5Z" style="fill:#ebebeb"></path><path d="M338.53,224.23c-1.28.82-2.26-.16-2.56-1.18a1.5,1.5,0,0,1,.75-2,2.9,2.9,0,0,0-.81.31,1.38,1.38,0,0,0-.57,1.27,4.34,4.34,0,0,0,2,3.41,1.4,1.4,0,0,0,1.39.14h0c1.58-.91,2.63-4.19,2.63-4.19h0a.68.68,0,0,0-.05-.52C341.33,222,339.81,223.41,338.53,224.23Z" style="opacity:0.1"></path><path d="M341.33,222a.68.68,0,0,0-.05-.52.67.67,0,0,0-.42-.3h0s-3.36-.72-4.94.19a1.18,1.18,0,0,0-.48.67c.22-.41.86-.78,2.49-.83a11.1,11.1,0,0,1,3,.22.36.36,0,0,0-.1.43c.1.27.42.36.55.15Z" style="fill:#fafafa"></path></g><g id="freepik--Body--inject-3"><path id="freepik--body--inject-3" d="M382.23,165.54S379,161,372,161.61s-13.6,3.43-25.09,10.07l-72.77,42c-11.49,6.64-42.75,24.68-53.63,33.17S193.68,269,193.68,269h0a6.1,6.1,0,0,0-2.75,4.77c0,1.25.63,2,1.54,1.95v0h.14c1.5-.08,14.81-.87,36.14-4.86,22.67-4.24,31.61-9.41,45.37-17.35L373.7,196c9.19-5.3,17.9-14.75,19.15-22.11S388.26,165.48,382.23,165.54Z" style="fill:#f5f5f5"></path><path d="M361.24,170.15c-4.8,5.11-6.69,10.37-14.35,14.8-7.32,4.22-97.26,53.6-113.37,61.91s-20,9-17.94,3.91h0C205.39,259,193.68,269,193.68,269h0a6.1,6.1,0,0,0-2.75,4.77c0,1.25.63,2,1.54,1.95v0h.14c1.5-.08,14.81-.87,36.14-4.86,22.67-4.24,31.61-9.41,45.37-17.35L373.7,196c9.19-5.3,17.9-14.75,19.15-22.11s-4.59-8.41-10.62-8.35C377.9,164.63,366,165,361.24,170.15Z" style="fill:#3A75B4"></path><path d="M361.24,170.15c-4.8,5.11-6.69,10.37-14.35,14.8-7.32,4.22-97.26,53.6-113.37,61.91s-20,9-17.94,3.91h0C205.39,259,193.68,269,193.68,269h0a6.1,6.1,0,0,0-2.75,4.77c0,1.25.63,2,1.54,1.95v0h.14c1.5-.08,14.81-.87,36.14-4.86,22.67-4.24,31.61-9.41,45.37-17.35L373.7,196c9.19-5.3,17.9-14.75,19.15-22.11s-4.59-8.41-10.62-8.35C377.9,164.63,366,165,361.24,170.15Z" style="fill:#fff;opacity:0.4"></path><path d="M389,168.12c3.58,1.69,4.18,4.51,3.46,7.32a11.22,11.22,0,0,0,.37-1.55c1.26-7.36-4.59-8.41-10.62-8.35-4.33-.91-16.19-.5-21,4.61C372.59,166.14,385,166.23,389,168.12Z" style="fill:#fafafa;opacity:0.5"></path><path d="M369.87,182.05c-14.34,7.41-45,24.75-73.46,40.74l3.83-11-33.67,18.6-3.94,11.26c-7.75,4.29-14.37,7.89-19.16,10.38a282,282,0,0,1-31.31,13.6l3.42-9.78-17,11.26-1.27,3.64c-2,.63-3.29,1-3.67,1.09-1,.21-1.22-.8-.8-2.29a6.2,6.2,0,0,0-1.95,4.16c0,1.25.63,2,1.54,1.95v0h.14c1.5-.08,14.81-.87,36.14-4.86,22.67-4.24,31.61-9.41,45.37-17.35L373.7,196a51.44,51.44,0,0,0,13.5-11.4C391.44,177.11,392,170.63,369.87,182.05Z" style="opacity:0.1"></path></g><g id="freepik--Windows--inject-3"><path d="M285.46,211.09a8.9,8.9,0,0,1,.26-2.21c.06-.25-.05-.35-.28-.22l-.9.52a1.34,1.34,0,0,0-.55.69,8.72,8.72,0,0,0-.26,2.22.26.26,0,0,0,.42.23l.91-.52A.91.91,0,0,0,285.46,211.09Z" style="fill:#455a64"></path><path d="M288.69,209.23a9.5,9.5,0,0,1,.25-2.22c.07-.25-.05-.34-.27-.21l-.91.52a1.33,1.33,0,0,0-.54.69,8.22,8.22,0,0,0-.26,2.21.26.26,0,0,0,.42.24l.91-.52A.91.91,0,0,0,288.69,209.23Z" style="fill:#455a64"></path><path d="M291.92,207.37a8.94,8.94,0,0,1,.25-2.22c.07-.25-.05-.35-.27-.22l-.91.53a1.34,1.34,0,0,0-.54.68,7.91,7.91,0,0,0-.26,2.22c0,.26.2.36.42.23l.91-.52A.9.9,0,0,0,291.92,207.37Z" style="fill:#455a64"></path><path d="M295.15,205.5a8.42,8.42,0,0,1,.25-2.21c.07-.26,0-.35-.27-.22l-.91.52a1.37,1.37,0,0,0-.54.69,7.91,7.91,0,0,0-.26,2.22c0,.26.19.36.42.23l.9-.52A.9.9,0,0,0,295.15,205.5Z" style="fill:#455a64"></path><path d="M298.38,203.64a8.49,8.49,0,0,1,.25-2.22c.06-.25-.05-.35-.28-.22l-.9.53a1.25,1.25,0,0,0-.54.68,7.91,7.91,0,0,0-.26,2.22c0,.26.19.37.42.24l.9-.53A.88.88,0,0,0,298.38,203.64Z" style="fill:#455a64"></path><path d="M301.61,201.77a8.42,8.42,0,0,1,.25-2.21c.06-.25-.05-.35-.28-.22l-.9.52a1.27,1.27,0,0,0-.54.69,8.32,8.32,0,0,0-.27,2.22c0,.26.2.36.43.23l.9-.52A.9.9,0,0,0,301.61,201.77Z" style="fill:#455a64"></path><path d="M304.83,199.91a9,9,0,0,1,.26-2.22c.06-.25,0-.34-.28-.21l-.9.52a1.3,1.3,0,0,0-.55.69,8.64,8.64,0,0,0-.26,2.21c0,.26.2.37.42.24l.91-.52A.91.91,0,0,0,304.83,199.91Z" style="fill:#455a64"></path><path d="M308.06,198.05a9.44,9.44,0,0,1,.25-2.22c.07-.25-.05-.35-.27-.22l-.91.53a1.34,1.34,0,0,0-.54.68,8.29,8.29,0,0,0-.26,2.22c0,.26.2.36.42.23l.91-.52A.9.9,0,0,0,308.06,198.05Z" style="fill:#455a64"></path><path d="M311.29,196.18a8.86,8.86,0,0,1,.25-2.21c.07-.26-.05-.35-.27-.22l-.91.52a1.37,1.37,0,0,0-.54.69,7.91,7.91,0,0,0-.26,2.22c0,.26.2.36.42.23l.91-.52A.91.91,0,0,0,311.29,196.18Z" style="fill:#455a64"></path><path d="M314.52,194.32a8.49,8.49,0,0,1,.25-2.22c.07-.25,0-.34-.27-.21l-.91.52a1.34,1.34,0,0,0-.54.68,7.91,7.91,0,0,0-.26,2.22c0,.26.19.37.42.24l.9-.53A.88.88,0,0,0,314.52,194.32Z" style="fill:#455a64"></path><path d="M317.75,192.45a8.42,8.42,0,0,1,.25-2.21c.06-.25-.05-.35-.28-.22l-.9.52a1.27,1.27,0,0,0-.54.69,7.91,7.91,0,0,0-.26,2.22c0,.26.19.36.42.23l.9-.52A.9.9,0,0,0,317.75,192.45Z" style="fill:#455a64"></path><path d="M321,190.59a8.54,8.54,0,0,1,.25-2.22c.06-.25-.05-.34-.28-.21l-.9.52a1.24,1.24,0,0,0-.54.69,7.84,7.84,0,0,0-.26,2.21c0,.26.19.37.42.24l.9-.52A.9.9,0,0,0,321,190.59Z" style="fill:#455a64"></path><path d="M324.2,188.73a9,9,0,0,1,.26-2.22c.06-.25,0-.35-.28-.22l-.9.53a1.31,1.31,0,0,0-.55.68,8.72,8.72,0,0,0-.26,2.22c0,.26.2.36.43.23l.9-.52A.9.9,0,0,0,324.2,188.73Z" style="fill:#455a64"></path><path d="M327.43,186.86a9.36,9.36,0,0,1,.25-2.21c.07-.26-.05-.35-.27-.22l-.91.52a1.37,1.37,0,0,0-.54.69,8.72,8.72,0,0,0-.26,2.22c0,.26.2.36.42.23l.91-.52A.91.91,0,0,0,327.43,186.86Z" style="fill:#455a64"></path><path d="M330.66,185a8.94,8.94,0,0,1,.25-2.22c.07-.25-.05-.34-.27-.21l-.91.52a1.34,1.34,0,0,0-.54.68,7.91,7.91,0,0,0-.26,2.22.26.26,0,0,0,.42.24l.91-.53A.9.9,0,0,0,330.66,185Z" style="fill:#455a64"></path><path d="M333.89,183.13a8.42,8.42,0,0,1,.25-2.21c.07-.25-.05-.35-.27-.22l-.91.52a1.37,1.37,0,0,0-.54.69,7.91,7.91,0,0,0-.26,2.22c0,.26.19.36.42.23l.9-.52A.9.9,0,0,0,333.89,183.13Z" style="fill:#455a64"></path><path d="M337.12,181.27a8.54,8.54,0,0,1,.25-2.22c.07-.25-.05-.34-.28-.21l-.9.52a1.24,1.24,0,0,0-.54.69,7.84,7.84,0,0,0-.26,2.21c0,.26.19.37.42.24l.9-.52A.9.9,0,0,0,337.12,181.27Z" style="fill:#455a64"></path><path d="M233.81,241.91a8.47,8.47,0,0,1,.25-2.21c.07-.25-.05-.35-.27-.22l-.91.52a1.41,1.41,0,0,0-.54.69,7.91,7.91,0,0,0-.26,2.22c0,.26.19.36.42.23l.9-.52A.88.88,0,0,0,233.81,241.91Z" style="fill:#455a64"></path><path d="M237,240a8.49,8.49,0,0,1,.25-2.22c.06-.25,0-.34-.28-.21l-.9.52a1.24,1.24,0,0,0-.54.69,7.84,7.84,0,0,0-.26,2.21c0,.26.19.37.42.24l.9-.52A.9.9,0,0,0,237,240Z" style="fill:#455a64"></path><path d="M240.22,238a8.54,8.54,0,0,1,.25-2.22c.07-.25-.05-.34-.28-.21l-.9.52a1.24,1.24,0,0,0-.54.69,7.84,7.84,0,0,0-.26,2.21c0,.26.19.37.42.24l.9-.52A.9.9,0,0,0,240.22,238Z" style="fill:#455a64"></path><path d="M243.43,236a8.42,8.42,0,0,1,.25-2.21c.06-.26-.05-.35-.28-.22l-.9.52a1.27,1.27,0,0,0-.54.69,7.91,7.91,0,0,0-.26,2.22c0,.26.19.36.42.23l.9-.52A.9.9,0,0,0,243.43,236Z" style="fill:#455a64"></path><path d="M246.64,234.07a8.94,8.94,0,0,1,.25-2.22c.07-.25,0-.34-.27-.21l-.91.52a1.33,1.33,0,0,0-.54.69,7.84,7.84,0,0,0-.26,2.21.26.26,0,0,0,.42.24l.91-.52A.93.93,0,0,0,246.64,234.07Z" style="fill:#455a64"></path><path d="M249.86,232.12a8.42,8.42,0,0,1,.25-2.21c.06-.26-.05-.35-.28-.22l-.9.52a1.27,1.27,0,0,0-.54.69,7.91,7.91,0,0,0-.26,2.22c0,.26.19.36.42.23l.9-.52A.9.9,0,0,0,249.86,232.12Z" style="fill:#455a64"></path><path d="M253.08,230.18a8.54,8.54,0,0,1,.25-2.22c.06-.25-.05-.34-.28-.21l-.9.52a1.27,1.27,0,0,0-.54.69,7.88,7.88,0,0,0-.26,2.21c0,.26.19.37.42.24l.9-.52A.9.9,0,0,0,253.08,230.18Z" style="fill:#455a64"></path><path d="M256.3,228.25a8.49,8.49,0,0,1,.25-2.22c.07-.25-.05-.35-.27-.22l-.91.53a1.34,1.34,0,0,0-.54.68,7.91,7.91,0,0,0-.26,2.22c0,.26.2.36.42.23l.91-.52A.9.9,0,0,0,256.3,228.25Z" style="fill:#455a64"></path><path d="M259.53,226.32a8.49,8.49,0,0,1,.25-2.22c.06-.25,0-.35-.28-.22l-.9.53a1.25,1.25,0,0,0-.54.68,7.91,7.91,0,0,0-.26,2.22c0,.26.19.37.42.24l.9-.53A.88.88,0,0,0,259.53,226.32Z" style="fill:#455a64"></path><path d="M262.76,224.39a8.42,8.42,0,0,1,.25-2.21c.06-.26-.05-.35-.28-.22l-.9.52a1.27,1.27,0,0,0-.54.69,7.91,7.91,0,0,0-.26,2.22c0,.26.19.36.42.23l.9-.52A.9.9,0,0,0,262.76,224.39Z" style="fill:#455a64"></path><path d="M266,222.48a8.94,8.94,0,0,1,.25-2.22c.07-.25-.05-.35-.27-.22l-.91.53a1.34,1.34,0,0,0-.54.68,7.91,7.91,0,0,0-.26,2.22c0,.26.2.36.42.23l.91-.52A.9.9,0,0,0,266,222.48Z" style="fill:#455a64"></path><path d="M269.23,220.56a8.42,8.42,0,0,1,.25-2.21c.06-.25-.05-.35-.28-.22l-.9.52a1.27,1.27,0,0,0-.54.69,7.91,7.91,0,0,0-.26,2.22c0,.26.19.36.42.23l.9-.52A.9.9,0,0,0,269.23,220.56Z" style="fill:#455a64"></path><path d="M272.47,218.66a8.49,8.49,0,0,1,.25-2.22c.06-.25-.05-.34-.28-.21l-.9.52a1.25,1.25,0,0,0-.54.68,8,8,0,0,0-.26,2.22c0,.26.19.37.42.24l.9-.53A.88.88,0,0,0,272.47,218.66Z" style="fill:#455a64"></path><path d="M275.71,216.76a8.94,8.94,0,0,1,.25-2.22c.07-.25,0-.34-.27-.21l-.91.52a1.34,1.34,0,0,0-.54.68,8.34,8.34,0,0,0-.26,2.22.26.26,0,0,0,.42.24l.91-.53A.9.9,0,0,0,275.71,216.76Z" style="fill:#455a64"></path><path d="M279,214.86a8.42,8.42,0,0,1,.25-2.21c.07-.25,0-.35-.27-.22L278,213a1.37,1.37,0,0,0-.54.69,7.91,7.91,0,0,0-.26,2.22c0,.26.19.36.42.23l.9-.52A.9.9,0,0,0,279,214.86Z" style="fill:#455a64"></path><path d="M282.24,213a8.54,8.54,0,0,1,.25-2.22c.06-.25-.05-.34-.28-.21l-.9.52a1.24,1.24,0,0,0-.54.69,8.24,8.24,0,0,0-.27,2.21.26.26,0,0,0,.43.24l.9-.52A.92.92,0,0,0,282.24,213Z" style="fill:#455a64"></path></g><g id="freepik--little-wign--inject-3"><path id="freepik--lttle-wing--inject-3" d="M215.58,255.89l-49.93-1.13a18,18,0,0,0-8,1.76l-3.24,1.88,43,10.12a4.12,4.12,0,0,0,3.53-.81Z" style="fill:#f0f0f0"></path><path d="M201,267.71l14-11.33c-3,2.35-11.24,7.37-15.8,8.17-4.92.87-44.71-6.15-44.71-6.15l43,10.12A4.12,4.12,0,0,0,201,267.71Z" style="fill:#e0e0e0"></path><path d="M215.58,255.89l-49.93-1.13a18,18,0,0,0-8,1.76l-3.24,1.88h0c3.21-1.37,7.28-2.57,19-2s40.49.84,40.49.84Z" style="fill:#fafafa"></path></g><g id="freepik--wing--inject-3"><g id="freepik--wing--inject-3"><path id="freepik--wing--inject-3" d="M300,210.93a1.88,1.88,0,0,0-.72-.19l-136.86-9.12a9.86,9.86,0,0,0-7.58,3.42l-3.26,4.23L265.9,231c2.13.43,8.43-1.92,14.72-5.55l10-5.76C297.36,215.75,301.56,211.84,300,210.93Z" style="fill:#f0f0f0"></path><path d="M280.62,225.42l10-5.76a50.42,50.42,0,0,0,7-4.74c-5.72,4.63-29.75,9.26-42.6,8s-103.42-13.69-103.42-13.69L265.9,231C268,231.4,274.33,229.05,280.62,225.42Z" style="fill:#e0e0e0"></path><path d="M300,210.93a1.88,1.88,0,0,0-.72-.19l-136.86-9.12a9.86,9.86,0,0,0-7.58,3.42l-2.35,3.05h0c1.92-2.5,5.21-4.59,10.58-4.36s78.42,5.36,91.93,6,38.72,2.39,40.3,2.56c2,.21,4.13.86,2.65,2.29C300,212.82,300.84,211.43,300,210.93Z" style="fill:#fafafa"></path></g><path d="M248.81,218.81a102.94,102.94,0,0,0-13.32,6.41s-.22.78.88,1.42a4.78,4.78,0,0,0,2.47.51,74.47,74.47,0,0,0,10.59-7.29A.62.62,0,0,0,248.81,218.81Z" style="fill:#3A75B4"></path><path d="M248.81,218.81a102.94,102.94,0,0,0-13.32,6.41s-.22.78.88,1.42a4.78,4.78,0,0,0,2.47.51,74.47,74.47,0,0,0,10.59-7.29A.62.62,0,0,0,248.81,218.81Z" style="opacity:0.1"></path><path d="M236.37,226.64a4.78,4.78,0,0,0,2.47.51,74.47,74.47,0,0,0,10.59-7.29.6.6,0,0,0,.12-.82c0,.61-.57.93-4,3.17s-6.37,4.1-7.82,4.1a3,3,0,0,1-2.25-1.09S235.27,226,236.37,226.64Z" style="opacity:0.15"></path><path d="M220.52,215.38a79,79,0,0,0-10.43,5s-.17.62.7,1.12a3.69,3.69,0,0,0,1.94.4,59.46,59.46,0,0,0,8.28-5.7A.49.49,0,0,0,220.52,215.38Z" style="fill:#3A75B4"></path><path d="M220.52,215.38a79,79,0,0,0-10.43,5s-.17.62.7,1.12a3.69,3.69,0,0,0,1.94.4,59.46,59.46,0,0,0,8.28-5.7A.49.49,0,0,0,220.52,215.38Z" style="opacity:0.1"></path><path d="M210.79,221.51a3.69,3.69,0,0,0,1.94.4,59.46,59.46,0,0,0,8.28-5.7.49.49,0,0,0-.26-.87c.36.24.05.57-2.29,2.14s-4.92,3.5-6.1,3.62a3.61,3.61,0,0,1-2.27-.71S209.92,221,210.79,221.51Z" style="opacity:0.15"></path><path d="M192.59,212.57a.37.37,0,0,0-.37-.63,58.18,58.18,0,0,0-7.53,3.62s-.12.45.51.82a2.75,2.75,0,0,0,1.42.29A42.4,42.4,0,0,0,192.59,212.57Z" style="fill:#3A75B4"></path><path d="M192.59,212.57a.37.37,0,0,0-.37-.63,58.18,58.18,0,0,0-7.53,3.62s-.12.45.51.82a2.75,2.75,0,0,0,1.42.29A42.4,42.4,0,0,0,192.59,212.57Z" style="opacity:0.1"></path><path d="M185.2,216.38a2.75,2.75,0,0,0,1.42.29,42.4,42.4,0,0,0,6-4.1.37.37,0,0,0-.13-.65c.18.18-.17.65-2.11,1.88s-3.69,2.66-5.66,1.76C184.69,215.56,184.57,216,185.2,216.38Z" style="opacity:0.15"></path></g><path id="freepik--Window--inject-3" d="M363.5,166.51a5.38,5.38,0,0,0-2.26,3.64,54.21,54.21,0,0,1,21-4.61,9.87,9.87,0,0,0-2.79-2.36C373.54,162.28,365.67,164.83,363.5,166.51Z" style="fill:#455a64"></path><g id="freepik--turbine--inject-3"><circle cx="269.4" cy="220.58" r="6.94" style="fill:#e0e0e0"></circle><path d="M276.34,220.58a6.92,6.92,0,0,0-10.79-5.76,11.68,11.68,0,0,0,2.86,10.54c.49.49-2.84.46-5.51-2.39a6.93,6.93,0,0,0,13.44-2.39Z" style="opacity:0.1"></path><path d="M285.35,199.89c-6.71,0-18.16,11.28-18.78,12.08h0a5.19,5.19,0,0,0-1,3.37,14,14,0,0,0,6.32,11,5.14,5.14,0,0,0,3.6.78h0c1-.14,16.42-4.53,19.78-10.34Z" style="fill:#ebebeb"></path><path d="M295.25,216.74l-9.44-16.07c-1.79.19-3.26.58-3.71,1.31-1.41,2.32-1.57,6.76,0,10.11s1.48,4.51-5.34,6.71-8.59,1.88-10.93-1.16a14.14,14.14,0,0,0,6,8.66,5.14,5.14,0,0,0,3.6.78h0C276.47,226.94,291.89,222.55,295.25,216.74Z" style="opacity:0.1"></path><path d="M285.35,199.89c-6.71,0-18.16,11.28-18.78,12.08h0a4.78,4.78,0,0,0-1,2.7c.43-1.64,2.26-3.19,4.66-5.24a100,100,0,0,1,10.28-7.33c1.29-.63-.09,2.66,1.4,6.25l3.88-7.67Z" style="fill:#fafafa"></path><path d="M296,213.47c0,4.63-3.25,6.51-7.27,4.19a16.09,16.09,0,0,1-7.27-12.58c0-4.64,3.26-6.52,7.27-4.2A16,16,0,0,1,296,213.47Z" style="fill:#455a64"></path><path d="M288.38,209.27l3.47-3.79-4.1,4.1Zm-.45-.47,2.37-4.57-2.9,5Zm-.55-.34,1.14-5.05L287,209Zm-.63-.19-.19-5.16,0,5.82Zm6.27-1.19-5,2.9.69-.13Zm-5.78,6,2.79,4.41-2.92-5.1Zm6.5-4.14-5.6,1.5.7,0Zm-5.92,3.83,3.81,3.51-4.12-4.14Zm-1.72-4.51-1.51-4.93,1.46,5.63Zm2.72,2.89,5.14-.24h-5.8Zm-.53,1.18,4.57,2.36-5-2.9Zm.34-.56,5,1.11-5.6-1.51Zm-4.31-.31-.18.28.88-.52Zm1,1.45,0,.74.53-1.71Zm-.72-1-.14.35.63-.64Zm.33.46-.08.48.6-1Zm1.68.82,1,2.86-.92-3.56Zm-.7-.09.24,1.52,0-2.6Zm-1.49-4-1.8-.86,2.25,1.39Zm-.58,2,1.16-.25h-.77Zm1.63-2.88-2.77-4.33,2.89,5.15Zm-.58.44-2.64-2.42,2.94,3.05Zm-.51,1.08-.19-.11-1.09-.08,1.55.51Zm.13.62-.27-.07-.76.14,1.07.09Z" style="fill:#fff;opacity:0.5"></path><path d="M287.47,212.1l5.64,5.64a.32.32,0,0,0,.32.07.91.91,0,0,0,.17-.09h0s-.05-.08-.13-.16l-5.74-5.75c-.08-.08-.07-.1,0,0l7.08,4.09a.17.17,0,0,0,.25-.1h0a.26.26,0,0,0-.11-.3l-7-4c-.1-.06-.09-.08,0-.05l7.24,1.94a.14.14,0,0,0,.19-.15v0a.34.34,0,0,0-.22-.26l-7.1-1.9c-.11,0-.11,0,0,0h6.78a.17.17,0,0,0,.17-.21h0a.27.27,0,0,0-.25-.2h-6.69c-.12,0-.12,0,0,0l6.12-1.64a.19.19,0,0,0,.13-.25h0a.23.23,0,0,0-.27-.14L288,210c-.11,0-.12,0,0-.05l5.35-3.09c.1-.06.15-.15.12-.21l-.06-.12a.43.43,0,0,1,0-.07s-.13,0-.23,0l-5.35,3.09c-.1,0-.11,0,0-.05l4.46-4.46a.23.23,0,0,0,0-.3h0a.19.19,0,0,0-.28,0l-4.49,4.49c-.08.08-.1.07-.05,0l3.36-5.82a.27.27,0,0,0,0-.32h0a.17.17,0,0,0-.26,0l-3.41,5.9c-.05.1-.08.09-.05,0l1.92-7.13a.32.32,0,0,0-.12-.32l0,0a.14.14,0,0,0-.23.09l-1.95,7.27c0,.11-.05.11-.05,0v-8.16a.26.26,0,0,0-.2-.25h0a.17.17,0,0,0-.2.17v8.24c0,.11,0,.11-.05,0L284,201c0-.11-.07-.2-.09-.19l0,0-.15.1a.31.31,0,0,0-.09.31l2.09,7.79c0,.11,0,.12-.05,0l-3.31-5.74c-.06-.1-.13-.09-.16,0a1.29,1.29,0,0,0,0,.19.59.59,0,0,0,.06.39l3.09,5.35c.06.1,0,.11,0,0l-3-3c-.08-.08-.13-.06-.13.06s0,.15,0,.22a.56.56,0,0,0,.17.36l2.68,2.69c.09.08.07.1,0,0l-2.29-1.32c-.1-.06-.15,0-.12.09s0,.12.05.18a.69.69,0,0,0,.25.31l1.9,1.1c.1.05.09.08,0,.05l-1.58-.43c-.11,0-.17,0-.13.15l0,.08a.46.46,0,0,0,.28.25l1.3.35c.11,0,.1,0,0,0h-1.09a.12.12,0,0,0-.11.19l0,0a.38.38,0,0,0,.3.19h.88c.11,0,.12,0,0,0l-.74.2a.16.16,0,0,0-.11.24h0a.26.26,0,0,0,.29.13l.65-.18c.11,0,.12,0,0,.05l-.56.33c-.1.06-.16.13-.14.18l0,.07a.86.86,0,0,0,.07.1c0,.06.15.06.25,0l.56-.33c.1-.06.11,0,0,0l-.47.48a.26.26,0,0,0,0,.32h0a.17.17,0,0,0,.26,0l.54-.53c.08-.08.1-.07,0,0l-.43.75a.38.38,0,0,0,0,.36l0,0c.06.1.16.09.22,0l.54-.93c.06-.1.08-.09.05,0l-.34,1.28a.46.46,0,0,0,.07.36l.06.07c.08.09.16.07.19,0l.42-1.56c0-.11.05-.11.05,0v2.18a.57.57,0,0,0,.14.36l.12.13c.08.09.15.06.15-.06v-2.61c0-.11,0-.11.05,0l1,3.61a.69.69,0,0,0,.22.33l.19.12c.1.07.15,0,.12-.08l-1.1-4.09c0-.11,0-.12.05,0l3.05,5.28a.59.59,0,0,0,.3.24l.19.06c.11,0,.15,0,.1-.12l-3.28-5.67C287.37,212,287.39,212,287.47,212.1Z" style="fill:#37474f"></path><path d="M290.79,208.13a.72.72,0,0,0-.46-.33h0s-3.69-.79-5.43.21a1.5,1.5,0,0,0-.64,1.4,4.78,4.78,0,0,0,2.17,3.75,1.5,1.5,0,0,0,1.53.15h0c1.74-1,2.9-4.6,2.9-4.6h0A.76.76,0,0,0,290.79,208.13Z" style="fill:#ebebeb"></path><path d="M287.77,211.13c-1.41.9-2.49-.18-2.81-1.3a1.62,1.62,0,0,1,.81-2.16,3,3,0,0,0-.88.33,1.5,1.5,0,0,0-.64,1.4,4.78,4.78,0,0,0,2.17,3.75,1.5,1.5,0,0,0,1.53.15h0c1.74-1,2.9-4.6,2.9-4.6h0a.76.76,0,0,0-.06-.57C290.85,208.7,289.18,210.22,287.77,211.13Z" style="opacity:0.1"></path><path d="M290.85,208.7a.76.76,0,0,0-.06-.57.72.72,0,0,0-.46-.33h0s-3.69-.79-5.43.21a1.2,1.2,0,0,0-.53.73c.24-.46.94-.86,2.74-.91a11.81,11.81,0,0,1,3.25.24.39.39,0,0,0-.11.47c.11.3.47.39.61.17Z" style="fill:#fafafa"></path></g></g></g></svg>